<svg width="120" height="212" viewBox="0 0 120 212" fill="none" xmlns="http://www.w3.org/2000/svg">
<g clip-path="url(#clip0_361_256)">
<rect y="4.86064" width="116.279" height="201.754" rx="11.1013" fill="white"/>
<path d="M103.625 0.275269H15.7153C7.04997 0.275269 0 7.36595 0 16.0814V195.394C0 204.109 7.04997 211.2 15.7153 211.2H103.625C112.29 211.2 119.34 204.109 119.34 195.394V16.0814C119.34 7.36595 112.29 0.275269 103.625 0.275269ZM113.546 195.394C113.543 198.039 112.497 200.576 110.637 202.447C108.777 204.318 106.255 205.37 103.625 205.373H15.7153C13.0848 205.37 10.563 204.318 8.70303 202.447C6.84309 200.576 5.79693 198.039 5.79408 195.394V172.161H113.546V195.394ZM113.546 166.334H5.79408V35.8179H113.546V166.334ZM113.546 29.9915H5.79408V16.0814C5.79693 13.4356 6.84309 10.8991 8.70303 9.0282C10.563 7.15729 13.0848 6.10479 15.7153 6.1016H103.625C106.255 6.10479 108.777 7.15729 110.637 9.0282C112.497 10.8991 113.543 13.4356 113.546 16.0814V29.9915Z" fill="#056939"/>
<path d="M59.6702 201.003C62.0763 201.003 64.4285 200.286 66.4291 198.941C68.4298 197.597 69.9891 195.686 70.9099 193.45C71.8307 191.214 72.0716 188.754 71.6022 186.38C71.1328 184.007 69.9741 181.826 68.2727 180.115C66.5712 178.404 64.4035 177.238 62.0436 176.766C59.6837 176.294 57.2375 176.536 55.0145 177.463C52.7915 178.389 50.8915 179.957 49.5547 181.969C48.2179 183.981 47.5044 186.347 47.5044 188.767C47.5079 192.011 48.7907 195.122 51.0715 197.416C53.3523 199.709 56.4447 201 59.6702 201.003ZM59.6702 182.358C60.9306 182.358 62.1627 182.733 63.2107 183.438C64.2588 184.142 65.0756 185.143 65.5579 186.314C66.0403 187.486 66.1665 188.774 65.9206 190.018C65.6747 191.261 65.0678 192.403 64.1765 193.3C63.2852 194.196 62.1497 194.806 60.9135 195.054C59.6772 195.301 58.3959 195.174 57.2314 194.689C56.0669 194.204 55.0716 193.382 54.3713 192.328C53.671 191.274 53.2973 190.035 53.2973 188.767C53.2995 187.068 53.9716 185.439 55.1663 184.237C56.361 183.036 57.9807 182.36 59.6702 182.358Z" fill="#056939"/>
<path d="M72.9947 15.1329H46.3455C45.5874 15.1484 44.8655 15.4622 44.3348 16.0069C43.8041 16.5517 43.5068 17.2839 43.5068 18.0466C43.5068 18.8093 43.8041 19.5416 44.3348 20.0863C44.8655 20.6311 45.5874 20.9449 46.3455 20.9604H72.9947C73.7528 20.9449 74.4747 20.6311 75.0054 20.0863C75.5362 19.5416 75.8334 18.8093 75.8334 18.0466C75.8334 17.2839 75.5362 16.5517 75.0054 16.0069C74.4747 15.4622 73.7528 15.1484 72.9947 15.1329Z" fill="#056939"/>
</g>
<defs>
<clipPath id="clip0_361_256">
<rect width="119.339" height="210.925" fill="white" transform="translate(0 0.275269)"/>
</clipPath>
</defs>
</svg>
