<svg width="338" height="338" viewBox="0 0 338 338" fill="none" xmlns="http://www.w3.org/2000/svg">
<path d="M131.805 115.731L167.569 56.66L143.86 17.2793C140.645 11.9214 136.024 9.2424 129.996 9.2424C123.969 9.2424 119.348 11.9214 116.133 17.2793L76.7521 82.7798L131.805 115.731ZM287.318 225.032L251.554 165.56L307.41 133.412L333.128 176.409C336.075 180.964 337.683 186.054 337.95 191.679C338.218 197.305 337.013 202.529 334.334 207.351C331.655 212.709 327.703 216.996 322.479 220.21C317.256 223.425 311.563 225.032 305.401 225.032H287.318ZM241.106 337.549L176.811 273.254L241.106 208.959V241.106H317.456L294.15 287.72C291.203 293.078 287.184 297.364 282.094 300.579C277.004 303.794 271.378 305.401 265.217 305.401H241.106V337.549ZM85.5927 305.401C80.2348 305.401 75.3457 303.995 70.9254 301.182C66.5051 298.369 63.2234 294.685 61.0802 290.131C58.9371 285.845 57.9325 281.358 58.0664 276.669C58.2004 271.981 59.4729 267.628 61.8839 263.609L75.5466 241.106H144.664V305.401H85.5927ZM45.8102 259.591L19.6903 207.351C17.2793 202.529 16.1407 197.372 16.2747 191.88C16.4086 186.388 17.949 181.231 20.8959 176.409L27.3254 165.56L0 149.084L88.0037 126.983L110.105 215.388L82.3779 198.511L45.8102 259.591ZM262.806 122.16L174.802 100.059L202.529 83.5835L152.299 0H208.959C214.584 0 219.875 1.40645 224.831 4.21936C229.788 7.03226 233.739 10.8498 236.686 15.6719L257.582 50.6323L284.907 33.7549L262.806 122.16Z" fill="#E5E8E3"/>
</svg>
