<svg width="200" height="200" viewBox="0 0 200 200" fill="none" xmlns="http://www.w3.org/2000/svg">
<path d="M100 200C86.1667 200 73.1667 197.375 61 192.125C48.8333 186.875 38.25 179.75 29.25 170.75C20.25 161.75 13.125 151.167 7.875 139C2.625 126.833 0 113.833 0 100C0 86.1667 2.625 73.1667 7.875 61C13.125 48.8333 20.25 38.25 29.25 29.25C38.25 20.25 48.8333 13.125 61 7.875C73.1667 2.625 86.1667 0 100 0C113.833 0 126.833 2.625 139 7.875C151.167 13.125 161.75 20.25 170.75 29.25C179.75 38.25 186.875 48.8333 192.125 61C197.375 73.1667 200 86.1667 200 100C200 113.833 197.375 126.833 192.125 139C186.875 151.167 179.75 161.75 170.75 170.75C161.75 179.75 151.167 186.875 139 192.125C126.833 197.375 113.833 200 100 200ZM100 185C123.729 185 143.828 176.766 160.297 160.297C176.766 143.828 185 123.729 185 100C185 89.8897 183.25 80.1537 179.75 70.7923C176.25 61.4308 171.333 52.9167 165 45.25L45.25 165C52.75 171.5 61.2078 176.458 70.6233 179.875C80.0389 183.292 89.8312 185 100 185ZM35.25 154.75L154.75 35.25C147.083 28.75 138.569 23.75 129.208 20.25C119.846 16.75 110.11 15 100 15C76.2708 15 56.1718 23.2343 39.703 39.703C23.2343 56.1718 15 76.2708 15 100C15 110.169 16.8333 119.961 20.5 129.376C24.1667 138.792 29.0833 147.25 35.25 154.75Z" fill="#B95345"/>
</svg>
