<svg width="21" height="20" viewBox="0 0 21 20" fill="none" xmlns="http://www.w3.org/2000/svg">
<g clip-path="url(#clip0_361_1646)">
<path d="M5.93261 8.47842L1.02519 9.47068C1.00477 9.47464 0.986088 9.48462 0.971648 9.49927C0.957207 9.51392 0.947703 9.53254 0.944414 9.55263C0.941125 9.57271 0.94421 9.5933 0.953251 9.61162C0.962293 9.62994 0.976859 9.64512 0.99499 9.65511L2.41437 10.4556C2.42599 10.4619 2.43621 10.4704 2.44442 10.4806C2.45262 10.4909 2.45866 10.5026 2.46218 10.5151C2.46569 10.5277 2.46662 10.5408 2.46489 10.5536C2.46316 10.5665 2.45882 10.579 2.45212 10.5902L0.0172805 14.7104C0.00664234 14.7263 0.000976562 14.7449 0.000976562 14.7639C0.000976562 14.7829 0.00664234 14.8015 0.0172805 14.8174L2.50119 18.0598C2.51118 18.0729 2.52438 18.0834 2.5396 18.0903C2.55482 18.0971 2.57155 18.1002 2.58828 18.0991C2.605 18.098 2.62118 18.0928 2.63531 18.084C2.64945 18.0752 2.66109 18.063 2.66918 18.0487L5.92129 12.547C5.92792 12.5358 5.93676 12.526 5.9473 12.5182C5.95784 12.5104 5.96987 12.5046 5.98269 12.5014C5.9955 12.4981 6.00886 12.4974 6.02197 12.4992C6.03508 12.501 6.0477 12.5054 6.05907 12.512L7.47845 13.3124C7.49609 13.3226 7.51649 13.3272 7.53691 13.3257C7.55732 13.3242 7.57676 13.3166 7.59261 13.3039C7.60845 13.2912 7.61994 13.2741 7.62551 13.2549C7.63109 13.2356 7.63049 13.2151 7.62379 13.1962L6.04775 8.54482C6.04032 8.52182 6.02445 8.50233 6.0032 8.49007C5.98195 8.47781 5.95681 8.47367 5.93261 8.47842Z" fill="#44694B"/>
<path d="M5.1904 14.3545L2.99149 18.0763C2.98247 18.0912 2.97765 18.1082 2.97754 18.1255C2.97743 18.1428 2.98202 18.1599 2.99085 18.1749C2.99969 18.1899 3.01243 18.2023 3.0278 18.2109C3.04317 18.2196 3.0606 18.224 3.07832 18.2239H8.34436C8.37089 18.2239 8.39634 18.2136 8.4151 18.1953C8.43386 18.1769 8.4444 18.1521 8.4444 18.1261V14.4043C8.4444 14.3783 8.43386 14.3535 8.4151 14.3352C8.39634 14.3168 8.37089 14.3065 8.34436 14.3065H5.27722C5.25972 14.3064 5.24249 14.3108 5.22726 14.3192C5.21202 14.3276 5.19931 14.3398 5.1904 14.3545Z" fill="#44694B"/>
<path d="M10.7865 16.3076L14.1273 19.9613C14.1411 19.9761 14.1592 19.9866 14.1792 19.9912C14.1991 19.9959 14.2201 19.9945 14.2393 19.9874C14.2585 19.9802 14.275 19.9675 14.2866 19.951C14.2983 19.9345 14.3046 19.9149 14.3047 19.8949V18.3014C14.3047 18.2754 14.3153 18.2506 14.334 18.2322C14.3528 18.2139 14.3782 18.2036 14.4048 18.2036H19.2726C19.2924 18.2036 19.3118 18.1978 19.3283 18.1869C19.3448 18.1761 19.3576 18.1607 19.3651 18.1428L20.9921 14.4283C20.9985 14.4132 21.0012 14.3969 20.9997 14.3806C20.9982 14.3644 20.9926 14.3487 20.9835 14.335C20.9743 14.3214 20.9619 14.3101 20.9473 14.3023C20.9327 14.2944 20.9163 14.2902 20.8996 14.2899H14.3972C14.3707 14.2899 14.3453 14.2796 14.3265 14.2613C14.3077 14.243 14.2972 14.2181 14.2972 14.1922V12.5839C14.2971 12.5638 14.2908 12.5443 14.2791 12.5278C14.2674 12.5113 14.2509 12.4986 14.2317 12.4914C14.2125 12.4842 14.1916 12.4829 14.1716 12.4876C14.1516 12.4922 14.1336 12.5027 14.1198 12.5175L10.7865 16.1767C10.7699 16.1946 10.7607 16.218 10.7607 16.2422C10.7607 16.2663 10.7699 16.2897 10.7865 16.3076Z" fill="#44694B"/>
<path d="M16.364 13.9967H20.7618C20.7795 13.9968 20.797 13.9923 20.8123 13.9837C20.8277 13.9751 20.8404 13.9627 20.8493 13.9476C20.8581 13.9326 20.8627 13.9156 20.8626 13.8983C20.8625 13.881 20.8577 13.864 20.8486 13.8491L18.2062 9.3932C18.1995 9.382 18.1907 9.37219 18.1802 9.36436C18.1696 9.35652 18.1576 9.3508 18.1448 9.34754C18.132 9.34428 18.1186 9.34354 18.1055 9.34536C18.0924 9.34719 18.0798 9.35154 18.0684 9.35816L14.7804 11.2191C14.769 11.2256 14.7589 11.2342 14.7509 11.2445C14.7429 11.2548 14.737 11.2666 14.7337 11.2791C14.7304 11.2916 14.7296 11.3047 14.7315 11.3175C14.7333 11.3303 14.7378 11.3426 14.7446 11.3537L16.2772 13.9487C16.2862 13.9633 16.299 13.9754 16.3142 13.9838C16.3294 13.9922 16.3465 13.9966 16.364 13.9967Z" fill="#44694B"/>
<path d="M15.364 8.17041L16.9401 3.51899C16.9468 3.50008 16.9474 3.47963 16.9418 3.46038C16.9362 3.44113 16.9247 3.42401 16.9089 3.41135C16.893 3.39868 16.8736 3.39106 16.8532 3.38953C16.8328 3.38801 16.8124 3.39263 16.7947 3.4028L15.3754 4.20508C15.352 4.21781 15.3245 4.22107 15.2987 4.21418C15.273 4.20728 15.251 4.19077 15.2376 4.1682L12.8065 0.0424121C12.7964 0.0262582 12.7818 0.0132036 12.7644 0.0047281C12.7471 -0.00374735 12.7277 -0.00730506 12.7084 -0.00554104L8.59367 0.472143C8.57693 0.473832 8.56089 0.479621 8.54705 0.488977C8.5332 0.498332 8.52199 0.510949 8.51447 0.525661C8.50694 0.540374 8.50333 0.556704 8.50398 0.57314C8.50463 0.589577 8.50951 0.605587 8.51817 0.619689L11.7646 6.12873C11.7713 6.13996 11.7757 6.15238 11.7774 6.16527C11.7791 6.17816 11.7782 6.19125 11.7747 6.20379C11.7712 6.21633 11.7651 6.22805 11.7569 6.23828C11.7487 6.24851 11.7385 6.25704 11.7269 6.26336L10.3075 7.06381C10.2894 7.0738 10.2748 7.08898 10.2658 7.1073C10.2567 7.12562 10.2536 7.14621 10.2569 7.16629C10.2602 7.18638 10.2697 7.205 10.2842 7.21965C10.2986 7.2343 10.3173 7.24427 10.3377 7.24824L15.2451 8.24049C15.2704 8.24612 15.2969 8.24197 15.319 8.2289C15.3412 8.21583 15.3574 8.19486 15.364 8.17041Z" fill="#44694B"/>
<path d="M10.5285 4.60532L8.32955 0.885294C8.32054 0.870381 8.3077 0.858022 8.29231 0.849436C8.27692 0.84085 8.2595 0.836334 8.24178 0.836334C8.22406 0.836334 8.20664 0.84085 8.19125 0.849436C8.17586 0.858022 8.16302 0.870381 8.15401 0.885294L5.52288 5.33937C5.5161 5.35049 5.51165 5.36281 5.50979 5.37563C5.50792 5.38844 5.50868 5.40149 5.51201 5.41401C5.51535 5.42654 5.5212 5.43829 5.52922 5.44859C5.53724 5.45889 5.54728 5.46753 5.55874 5.47401L8.85615 7.33494C8.86765 7.34149 8.88036 7.34573 8.89355 7.34742C8.90674 7.34911 8.92014 7.34821 8.93297 7.34478C8.9458 7.34134 8.9578 7.33544 8.96827 7.32742C8.97874 7.3194 8.98747 7.30941 8.99394 7.29806L10.5285 4.70307C10.5369 4.6881 10.5413 4.67129 10.5413 4.6542C10.5413 4.63711 10.5369 4.6203 10.5285 4.60532Z" fill="#44694B"/>
</g>
<defs>
<clipPath id="clip0_361_1646">
<rect width="21" height="20" fill="white"/>
</clipPath>
</defs>
</svg>
