<svg width="253" height="58" viewBox="0 0 253 58" fill="none" xmlns="http://www.w3.org/2000/svg">
<g clip-path="url(#clip0_204_2013)">
<path d="M38.6231 9.99601L46.8963 8.53423C47.4824 11.8513 46.7268 15.2652 44.7957 18.0251C42.8646 20.785 39.9163 22.6648 36.5993 23.2509L28.326 24.7126C27.7399 21.3956 28.4956 17.9817 30.4266 15.2218C32.3577 12.4618 35.3061 10.5821 38.6231 9.99601Z" fill="white"/>
<mask id="mask0_204_2013" style="mask-type:luminance" maskUnits="userSpaceOnUse" x="28" y="8" width="20" height="17">
<path d="M38.6231 9.99601L46.8963 8.53423C47.4824 11.8513 46.7268 15.2652 44.7957 18.0251C42.8646 20.785 39.9163 22.6648 36.5993 23.2509L28.326 24.7126C27.7399 21.3956 28.4956 17.9817 30.4266 15.2218C32.3577 12.4618 35.3061 10.5821 38.6231 9.99601Z" fill="white"/>
</mask>
<g mask="url(#mask0_204_2013)">
<path d="M39.8105 24.7452L48.2448 10.174V24.7452H39.8105Z" fill="white"/>
<path d="M39.6475 24.7452L48.2458 9.9115V10.174L39.8116 24.7452H39.6475Z" fill="white"/>
<path d="M39.4844 24.745L48.2468 9.61584V9.91121L39.6485 24.745H39.4844Z" fill="white"/>
<path d="M39.3174 24.745L48.2439 9.32056V9.61592L39.4815 24.745H39.3174Z" fill="white"/>
<path d="M39.1533 24.7452L48.2439 9.02539V9.32075L39.3174 24.7452H39.1533Z" fill="white"/>
<path d="M38.9902 24.7453L48.2449 8.7301V9.02546L39.1543 24.7453H38.9902Z" fill="white"/>
<path d="M38.8271 24.7452L48.1803 8.56592H48.2459V8.73001L38.9912 24.7452H38.8271Z" fill="white"/>
<path d="M38.6631 24.7452L47.9834 8.56592H48.1803L38.8272 24.7452H38.6631Z" fill="white"/>
<path d="M38.4648 24.7452L47.818 8.56592H47.9821L38.6618 24.7452H38.4648Z" fill="white"/>
<path d="M38.333 24.7452L47.6533 8.56592H47.8174L38.4643 24.7452H38.333Z" fill="white"/>
<path d="M38.1377 24.7452L47.4908 8.56592H47.6549L38.3346 24.7452H38.1377Z" fill="white"/>
<path d="M37.9746 24.7452L47.3277 8.56592H47.4918L38.1387 24.7452H37.9746Z" fill="white"/>
<path d="M37.8076 24.7452L47.1608 8.56592H47.3248L37.9717 24.7452H37.8076Z" fill="white"/>
<path d="M37.6445 24.7452L46.9977 8.56592H47.1618L37.8086 24.7452H37.6445Z" fill="white"/>
<path d="M37.4805 24.7452L46.8336 8.56592H46.9977L37.6446 24.7452H37.4805Z" fill="white"/>
<path d="M37.3174 24.7452L46.6705 8.56592H46.8346L37.4815 24.7452H37.3174Z" fill="white"/>
<path d="M37.1543 24.7452L46.5074 8.56592H46.6715L37.3184 24.7452H37.1543Z" fill="white"/>
<path d="M36.9873 24.7452L46.3404 8.56592H46.5045L37.1514 24.7452H36.9873Z" fill="white"/>
<path d="M36.8242 24.7452L46.1774 8.56592H46.3414L36.9883 24.7452H36.8242Z" fill="white"/>
<path d="M36.6602 24.7452L46.0133 8.56592H46.1774L36.8242 24.7452H36.6602Z" fill="white"/>
<path d="M36.4971 24.7452L45.8174 8.56592H46.0143L36.6612 24.7452H36.4971Z" fill="white"/>
<path d="M36.2979 24.7452L45.651 8.56592H45.8151L36.4948 24.7452H36.2979Z" fill="white"/>
<path d="M36.1348 24.7452L45.4879 8.56592H45.652L36.2989 24.7452H36.1348Z" fill="white"/>
<path d="M35.9717 24.7452L45.3248 8.56592H45.4889L36.1358 24.7452H35.9717Z" fill="white"/>
<path d="M35.8076 24.7452L45.1608 8.56592H45.3248L35.9717 24.7452H35.8076Z" fill="white"/>
<path d="M35.6445 24.7452L44.9977 8.56592H45.1618L35.8086 24.7452H35.6445Z" fill="white"/>
<path d="M35.4775 24.7452L44.8307 8.56592H44.9948L35.6416 24.7452H35.4775Z" fill="white"/>
<path d="M35.3145 24.7452L44.6676 8.56592H44.8317L35.4785 24.7452H35.3145Z" fill="white"/>
<path d="M35.1514 24.7452L44.5045 8.56592H44.6686L35.3155 24.7452H35.1514Z" fill="white"/>
<path d="M34.9873 24.7452L44.3404 8.56592H44.5045L35.1514 24.7452H34.9873Z" fill="white"/>
<path d="M34.8242 24.7452L44.1774 8.56592H44.3414L34.9883 24.7452H34.8242Z" fill="white"/>
<path d="M34.6572 24.7452L44.0104 8.56592H44.1745L34.8213 24.7452H34.6572Z" fill="white"/>
<path d="M34.4941 24.7452L43.8473 8.56592H44.0114L34.6582 24.7452H34.4941Z" fill="white"/>
<path d="M34.3301 24.7452L43.6504 8.56592H43.8473L34.4942 24.7452H34.3301Z" fill="white"/>
<path d="M34.167 24.7452L43.4873 8.56592H43.6514L34.3311 24.7452H34.167Z" fill="white"/>
<path d="M33.9688 24.7452L43.3219 8.56592H43.486L34.1657 24.7452H33.9688Z" fill="white"/>
<path d="M33.8047 24.7452L43.1578 8.56592H43.3219L33.9688 24.7452H33.8047Z" fill="white"/>
<path d="M33.6416 24.7452L42.9947 8.56592H43.1588L33.8057 24.7452H33.6416Z" fill="white"/>
<path d="M33.4775 24.7452L42.8307 8.56592H42.9948L33.6416 24.7452H33.4775Z" fill="white"/>
<path d="M33.3145 24.7452L42.6676 8.56592H42.8317L33.4785 24.7452H33.3145Z" fill="white"/>
<path d="M33.1475 24.7452L42.5006 8.56592H42.6647L33.3116 24.7452H33.1475Z" fill="white"/>
<path d="M32.9844 24.7452L42.3375 8.56592H42.5016L33.1485 24.7452H32.9844Z" fill="white"/>
<path d="M32.8213 24.7452L42.1744 8.56592H42.3385L32.9854 24.7452H32.8213Z" fill="white"/>
<path d="M32.6572 24.7452L42.0104 8.56592H42.1745L32.8213 24.7452H32.6572Z" fill="white"/>
<path d="M32.4941 24.7452L41.8473 8.56592H42.0114L32.6582 24.7452H32.4941Z" fill="white"/>
<path d="M32.3271 24.7452L41.6803 8.56592H41.8444L32.4912 24.7452H32.3271Z" fill="white"/>
<path d="M32.1318 24.7452L41.485 8.56592H41.6819L32.3287 24.7452H32.1318Z" fill="white"/>
<path d="M32.001 24.7452L41.3213 8.56592H41.4854L32.1322 24.7452H32.001Z" fill="white"/>
<path d="M31.8047 24.7452L41.1578 8.56592H41.3219L32.0016 24.7452H31.8047Z" fill="white"/>
<path d="M31.6387 24.7452L40.9918 8.56592H41.1559L31.8028 24.7452H31.6387Z" fill="white"/>
<path d="M31.4746 24.7452L40.8277 8.56592H40.9918L31.6387 24.7452H31.4746Z" fill="white"/>
<path d="M31.3115 24.7452L40.6647 8.56592H40.8287L31.4756 24.7452H31.3115Z" fill="white"/>
<path d="M31.1484 24.7452L40.5016 8.56592H40.6657L31.3125 24.7452H31.1484Z" fill="white"/>
<path d="M30.9844 24.7452L40.3375 8.56592H40.5016L31.1485 24.7452H30.9844Z" fill="white"/>
<path d="M30.8184 24.7452L40.1715 8.56592H40.3356L30.9825 24.7452H30.8184Z" fill="white"/>
<path d="M30.6543 24.7452L40.0074 8.56592H40.1715L30.8184 24.7452H30.6543Z" fill="white"/>
<path d="M30.4912 24.7452L39.8443 8.56592H40.0084L30.6553 24.7452H30.4912Z" fill="white"/>
<path d="M30.3271 24.7452L39.6803 8.56592H39.8444L30.4912 24.7452H30.3271Z" fill="white"/>
<path d="M30.1641 24.7452L39.4844 8.56592H39.6813L30.3282 24.7452H30.1641Z" fill="white"/>
<path d="M29.9658 24.7452L39.319 8.56592H39.483L30.1627 24.7452H29.9658Z" fill="white"/>
<path d="M29.8018 24.7452L39.1549 8.56592H39.319L29.9658 24.7452H29.8018Z" fill="white"/>
<path d="M29.6387 24.7452L38.9918 8.56592H39.1559L29.8028 24.7452H29.6387Z" fill="white"/>
<path d="M29.4717 24.7452L38.8248 8.56592H38.9889L29.6358 24.7452H29.4717Z" fill="white"/>
<path d="M29.3086 24.7452L38.6617 8.56592H38.8258L29.4727 24.7452H29.3086Z" fill="white"/>
<path d="M29.1445 24.7452L38.4977 8.56592H38.6618L29.3086 24.7452H29.1445Z" fill="white"/>
<path d="M28.9814 24.7452L38.3346 8.56592H38.4987L29.1455 24.7452H28.9814Z" fill="white"/>
<path d="M28.8184 24.7452L38.1715 8.56592H38.3356L28.9825 24.7452H28.8184Z" fill="white"/>
<path d="M28.6514 24.7452L38.0045 8.56592H38.1686L28.8155 24.7452H28.6514Z" fill="white"/>
<path d="M28.4883 24.7452L37.8414 8.56592H38.0055L28.6524 24.7452H28.4883Z" fill="white"/>
<path d="M28.3242 24.7452L37.6774 8.56592H37.8414L28.4883 24.7452H28.3242Z" fill="white"/>
<path d="M28.1611 24.7452L37.5143 8.56592H37.6784L28.3252 24.7452H28.1611Z" fill="white"/>
<path d="M27.998 24.7452L37.3184 8.56592H37.5153L28.1621 24.7452H27.998Z" fill="white"/>
<path d="M27.7988 24.7452L37.152 8.56592H37.3161L27.9957 24.7452H27.7988Z" fill="white"/>
<path d="M27.6357 24.7452L36.9889 8.56592H37.153L27.7998 24.7452H27.6357Z" fill="white"/>
<path d="M27.4717 24.7452L36.8248 8.56592H36.9889L27.6358 24.7452H27.4717Z" fill="white"/>
<path d="M27.3086 24.7452L36.6617 8.56592H36.8258L27.4727 24.7452H27.3086Z" fill="white"/>
<path d="M27.1416 24.7452L36.4947 8.56592H36.6588L27.3057 24.7452H27.1416Z" fill="white"/>
<path d="M26.9785 24.7452L36.3317 8.56592H36.4957L27.1426 24.7452H26.9785Z" fill="white"/>
<path d="M36.3322 8.56592L26.9791 24.7452H26.9463V8.56592H36.3322Z" fill="white"/>
</g>
<path d="M52.5426 38.266L46.8323 32.5884C44.6254 34.789 41.8707 36.3599 38.8531 37.1389C35.8355 37.9178 32.6646 37.8764 29.6684 37.0189C26.8131 36.2259 24.2146 34.7004 22.1307 32.5934C20.0468 30.4865 18.5498 27.8714 17.7883 25.0075C16.8395 21.5383 16.977 17.8616 18.1821 14.4729C18.9913 12.1733 20.2774 10.0707 21.9562 8.30311L22.5141 7.74521C25.7526 4.63805 30.0703 2.9086 34.5583 2.92095C39.1857 2.92095 42.6315 5.51355 46.5369 7.71236C43.1907 4.44363 39.0511 2.10243 34.5255 0.919052C28.7539 -0.611809 22.6395 -0.208452 17.119 2.0673C11.5984 4.34306 6.97611 8.36573 3.95998 13.5192C0.943854 18.6727 -0.299759 24.6728 0.41961 30.6005C1.13898 36.5283 3.78166 42.0567 7.9429 46.3392L8.20545 46.6017L8.468 46.8643C15.3921 53.6643 24.6986 57.4907 34.4034 57.5274C44.1082 57.5642 53.4435 53.8086 60.4189 47.0612L60.8784 46.6017L52.5426 38.266Z" fill="white"/>
<path d="M24.7458 43.4512L24.4832 43.2215L24.2207 42.9261C20.6227 39.2423 18.1426 34.614 17.068 29.578C15.9935 24.542 16.3684 19.3045 18.1493 14.4729C19.5048 10.7622 21.6682 7.39926 24.4832 4.62751C26.2141 2.89925 28.1675 1.40931 30.292 0.197059C24.7144 -0.385836 19.0927 0.764899 14.1928 3.49253C9.29284 6.22017 5.35291 10.392 2.90973 15.4398C0.466552 20.4876 -0.361076 26.1659 0.539591 31.7011C1.44026 37.2363 4.02544 42.3592 7.94293 46.372L8.20548 46.6345L8.46803 46.8971C15.4645 53.7847 24.9048 57.6199 34.7224 57.563C40.0935 57.5957 45.4091 56.4766 50.311 54.2812C40.7099 54.1109 31.5476 50.2296 24.7458 43.4512Z" fill="white"/>
<path d="M52.5434 38.2657L48.3427 34.1963L46.8331 32.7195L45.8157 33.6712C43.2938 35.8123 40.2135 37.1898 36.9363 37.642C33.6592 38.0942 30.321 37.6025 27.3134 36.2244C24.3058 34.8464 21.7537 32.6393 19.9562 29.8619C18.1588 27.0845 17.1907 23.8521 17.1656 20.544C17.1644 18.5633 17.5087 16.5976 18.183 14.7352C16.402 19.5668 16.0271 24.8043 17.1017 29.8403C18.1762 34.8763 20.6563 39.5046 24.2543 43.1885L24.5168 43.4838L24.7794 43.7135C31.5665 50.3929 40.6594 54.211 50.1805 54.3794C53.9728 52.6145 57.4444 50.2298 60.4526 47.3235L60.912 46.8641L52.5434 38.2657Z" fill="white"/>
<path d="M74.0066 36.3952H63.4063C63.7878 37.038 64.3471 37.5566 65.0168 37.8885C65.6864 38.2205 66.4379 38.3515 67.1804 38.2659C68.441 38.3207 69.6852 37.9635 70.7248 37.2485L73.022 39.677C71.9017 40.9246 70.435 41.8101 68.8091 42.2201C67.1832 42.6302 65.472 42.5463 63.894 41.9792C62.316 41.4121 60.9429 40.3876 59.9499 39.0364C58.957 37.6852 58.3894 36.0686 58.3195 34.3933C58.2739 33.3207 58.45 32.2502 58.8366 31.2487C59.2232 30.2471 59.8122 29.336 60.5667 28.5723C61.3212 27.8085 62.2251 27.2085 63.2218 26.8097C64.2186 26.4109 65.2869 26.2219 66.36 26.2544C70.3309 26.2544 75.0896 28.9783 74.0066 36.3952ZM63.2423 32.7196H69.4449C69.2648 32.0704 68.8659 31.5033 68.3156 31.1146C67.7654 30.7258 67.0977 30.5392 66.4256 30.5864C65.7384 30.5637 65.0614 30.7574 64.4903 31.1401C63.9191 31.5229 63.4825 32.0754 63.2423 32.7196Z" fill="white"/>
<path d="M82.966 36.5264L81.2595 38.4298V42.171H76.0742V26.5497H81.2595V31.7349L85.3946 26.5497H91.9582L86.3791 32.8507L93.2052 42.171H87.0355L82.966 36.5264Z" fill="white"/>
<path d="M92.2844 34.3604C92.2387 32.7028 92.6885 31.0691 93.5762 29.6684C94.464 28.2677 95.7493 27.1636 97.2679 26.4974C98.7864 25.8311 100.469 25.6329 102.101 25.9281C103.733 26.2233 105.24 26.9985 106.428 28.1546C107.617 29.3107 108.434 30.7952 108.775 32.4181C109.116 34.0411 108.965 35.7287 108.341 37.2653C107.717 38.8019 106.65 40.1176 105.274 41.0441C103.899 41.9706 102.279 42.4659 100.62 42.4665C99.533 42.5112 98.4481 42.3338 97.4317 41.9452C96.4153 41.5567 95.4889 40.965 94.7088 40.2064C93.9287 39.4478 93.3114 38.5382 92.8945 37.5331C92.4777 36.528 92.2701 35.4485 92.2844 34.3604ZM103.836 34.3604C103.836 33.7114 103.644 33.0768 103.283 32.5372C102.923 31.9975 102.41 31.5768 101.81 31.3284C101.211 31.08 100.551 31.0151 99.9143 31.1417C99.2777 31.2683 98.693 31.5809 98.234 32.0399C97.775 32.4988 97.4624 33.0836 97.3358 33.7202C97.2092 34.3568 97.2742 35.0166 97.5226 35.6163C97.771 36.216 98.1916 36.7285 98.7313 37.0891C99.271 37.4498 99.9055 37.6422 100.555 37.6422C100.994 37.6554 101.431 37.5803 101.841 37.4213C102.25 37.2622 102.624 37.0226 102.939 36.7165C103.254 36.4105 103.505 36.0442 103.676 35.6395C103.847 35.2348 103.935 34.7998 103.935 34.3604H103.836Z" fill="white"/>
<path d="M129.237 37.675V44.2386H124.019V42.171H110.892V26.5497H116.077V37.675H121.656V26.5497H126.907V37.675H129.237Z" fill="white"/>
<path d="M145.287 36.3952H134.687C135.08 37.0349 135.646 37.5503 136.32 37.8814C136.993 38.2125 137.747 38.3458 138.494 38.2658C139.753 38.3136 140.995 37.957 142.038 37.2484L144.303 39.677C143.431 40.7521 142.303 41.5904 141.022 42.1143C139.741 42.6383 138.348 42.831 136.973 42.6747C135.598 42.5184 134.284 42.0182 133.154 41.2201C132.023 40.4221 131.111 39.3519 130.503 38.1086C129.895 36.8653 129.61 35.4888 129.675 34.1063C129.739 32.7238 130.151 31.3798 130.872 30.1985C131.593 29.0171 132.6 28.0365 133.801 27.3472C135.001 26.6578 136.355 26.282 137.739 26.2544C141.611 26.2544 146.37 28.9783 145.287 36.3952ZM134.523 32.7195H140.725C140.545 32.0703 140.146 31.5033 139.596 31.1145C139.046 30.7257 138.378 30.5391 137.706 30.5863C137.019 30.5636 136.342 30.7573 135.771 31.1401C135.2 31.5228 134.763 32.0753 134.523 32.7195Z" fill="white"/>
<path d="M162.483 26.5497V42.171H157.297V36.9858H152.539V42.171H147.354V26.5497H152.539V32.4897H157.297V26.5497H162.483Z" fill="white"/>
<path d="M177.515 31.0786H173.61V42.171H168.424V31.0786H164.552V26.5497H177.515V31.0786Z" fill="white"/>
<path d="M177.611 34.3605C177.535 33.337 177.668 32.3088 178.003 31.3386C178.338 30.3685 178.867 29.4768 179.558 28.7181C180.249 27.9594 181.088 27.3497 182.023 26.926C182.958 26.5024 183.969 26.2739 184.995 26.2544C185.803 26.2093 186.612 26.345 187.361 26.6516C188.11 26.9581 188.782 27.4278 189.327 28.0266V26.5498H194.545V42.1711H189.261V40.76C188.721 41.3644 188.05 41.838 187.299 42.145C186.549 42.452 185.738 42.5844 184.929 42.5321C183.901 42.5091 182.889 42.2754 181.955 41.8455C181.021 41.4155 180.185 40.7985 179.499 40.0325C178.813 39.2665 178.291 38.3679 177.967 37.3923C177.642 36.4167 177.521 35.3848 177.611 34.3605ZM189.524 34.3605C189.555 33.9106 189.494 33.459 189.343 33.0339C189.192 32.6088 188.956 32.2194 188.648 31.8899C188.34 31.5604 187.967 31.2979 187.553 31.1188C187.139 30.9397 186.693 30.8478 186.242 30.8489C185.311 30.8489 184.418 31.2189 183.759 31.8774C183.1 32.536 182.731 33.4292 182.731 34.3605C182.731 35.2918 183.1 36.185 183.759 36.8435C184.418 37.5021 185.311 37.872 186.242 37.872C186.693 37.8731 187.139 37.7812 187.553 37.6021C187.967 37.423 188.34 37.1605 188.648 36.831C188.956 36.5015 189.192 36.1121 189.343 35.687C189.494 35.2619 189.555 34.8104 189.524 34.3605Z" fill="white"/>
<path d="M214.235 34.3605C214.316 35.3877 214.185 36.4206 213.85 37.395C213.515 38.3694 212.983 39.2645 212.288 40.0247C211.592 40.785 210.748 41.394 209.807 41.8141C208.866 42.2341 207.849 42.4562 206.818 42.4665C206.018 42.5236 205.216 42.393 204.475 42.0854C203.735 41.7777 203.076 41.3014 202.552 40.6943V47.8815H197.334V26.5498H202.388V28.0266C202.917 27.4254 203.576 26.9533 204.316 26.6461C205.055 26.3389 205.855 26.205 206.654 26.2544C207.697 26.247 208.73 26.4558 209.688 26.8675C210.646 27.2792 211.508 27.885 212.221 28.6466C212.933 29.4082 213.48 30.3091 213.826 31.2925C214.173 32.2759 214.312 33.3206 214.235 34.3605ZM209.148 34.3605C209.18 33.9106 209.119 33.459 208.968 33.0339C208.817 32.6088 208.58 32.2194 208.272 31.8899C207.964 31.5604 207.592 31.2979 207.178 31.1188C206.764 30.9397 206.318 30.8478 205.867 30.8489C204.935 30.8489 204.042 31.2189 203.384 31.8774C202.725 32.536 202.355 33.4291 202.355 34.3605C202.355 35.2918 202.725 36.185 203.384 36.8435C204.042 37.502 204.935 37.872 205.867 37.872C206.318 37.8731 206.764 37.7812 207.178 37.6021C207.592 37.423 207.964 37.1605 208.272 36.831C208.58 36.5015 208.817 36.1121 208.968 35.687C209.119 35.2619 209.18 34.8104 209.148 34.3605Z" fill="white"/>
<path d="M236.423 27.6329C236.238 30.4632 235.078 33.142 233.141 35.2138L228.087 42.1057H222.278L228.153 34.0652H227.66C226.829 34.04 226.01 33.8494 225.253 33.5045C224.495 33.1596 223.814 32.6672 223.249 32.0562C222.684 31.4453 222.246 30.7279 221.961 29.9459C221.676 29.1639 221.55 28.333 221.589 27.5016C221.733 25.6328 222.582 23.8886 223.965 22.6228C225.347 21.3569 227.159 20.6643 229.034 20.6852C230.908 20.706 232.704 21.4389 234.058 22.7352C235.412 24.0315 236.222 25.7941 236.324 27.6657L236.423 27.6329ZM231.5 27.3375C231.505 27.0174 231.444 26.6997 231.321 26.4042C231.198 26.1087 231.015 25.8418 230.784 25.6201C230.553 25.3984 230.279 25.2267 229.979 25.1156C229.678 25.0045 229.358 24.9566 229.039 24.9746C228.721 24.9563 228.402 25.0043 228.104 25.1157C227.805 25.2271 227.533 25.3993 227.304 25.6216C227.076 25.8438 226.896 26.1111 226.777 26.4065C226.657 26.7019 226.601 27.019 226.61 27.3375C226.596 27.6602 226.65 27.9822 226.767 28.2831C226.884 28.5841 227.062 28.8574 227.291 29.0858C227.519 29.3141 227.792 29.4925 228.093 29.6096C228.394 29.7267 228.716 29.78 229.039 29.766C229.357 29.7793 229.675 29.728 229.973 29.6153C230.271 29.5025 230.544 29.3305 230.774 29.1098C231.004 28.889 231.186 28.624 231.311 28.3308C231.436 28.0375 231.5 27.7219 231.5 27.4031V27.3375Z" fill="white"/>
<path d="M245.84 25.3683H238.193V20.8394H252.666L243.772 42.1711H238.653L245.84 25.3683Z" fill="white"/>
</g>
<defs>
<clipPath id="clip0_204_2013">
<rect width="252.469" height="57.53" fill="white" transform="translate(0.230469)"/>
</clipPath>
</defs>
</svg>
