<svg width="24" height="24" viewBox="0 0 24 24" fill="none" xmlns="http://www.w3.org/2000/svg">
<g clip-path="url(#clip0_361_1736)">
<path d="M16 16L12 12L8 16" stroke="#747474" stroke-width="2" stroke-linecap="round" stroke-linejoin="round"/>
<path d="M12 12V21" stroke="#747474" stroke-width="2" stroke-linecap="round" stroke-linejoin="round"/>
<path d="M20.3904 18.39C21.3658 17.8583 22.1363 17.0169 22.5803 15.9986C23.0244 14.9804 23.1167 13.8432 22.8427 12.7667C22.5686 11.6901 21.9439 10.7355 21.0671 10.0534C20.1903 9.37138 19.1113 9.00073 18.0004 9H16.7404C16.4378 7.82924 15.8736 6.74233 15.0904 5.82099C14.3072 4.89965 13.3253 4.16785 12.2185 3.68061C11.1118 3.19336 9.909 2.96336 8.70057 3.00788C7.49213 3.05241 6.30952 3.3703 5.24163 3.93766C4.17374 4.50503 3.24836 5.3071 2.53507 6.28358C1.82178 7.26006 1.33914 8.38554 1.12343 9.57539C0.907718 10.7653 0.964554 11.9885 1.28966 13.1533C1.61477 14.318 2.19969 15.3939 3.00045 16.3" stroke="#747474" stroke-width="2" stroke-linecap="round" stroke-linejoin="round"/>
<path d="M16 16L12 12L8 16" stroke="#747474" stroke-width="2" stroke-linecap="round" stroke-linejoin="round"/>
</g>
<defs>
<clipPath id="clip0_361_1736">
<rect width="24" height="24" fill="white"/>
</clipPath>
</defs>
</svg>
