<svg width="24" height="23" viewBox="0 0 24 23" fill="none" xmlns="http://www.w3.org/2000/svg">
<path d="M12.5821 18.2738L15.285 13.4798L15.2979 15.2331L20.9865 15.2204C22.0029 15.1139 22.8941 14.7054 23.5395 13.9372C21.4797 18.1027 20.8865 21.0501 16.6129 21.0519H15.2979L15.285 23L12.5821 18.2738ZM6.07102 21.0943C3.02967 20.1799 1.61067 16.4755 0.219636 13.8652C0.857203 14.4383 2.05034 15.2586 2.74333 15.2587C4.07245 15.2618 5.40157 15.2642 6.73069 15.267H10.7573L10.7444 21.0773L10.7316 21.0943L6.07102 21.0943ZM0 12.3473L1.94378 8.42782L0.0482923 7.39846H5.72833L8.47411 12.3279L6.61199 11.2256C6.01473 12.4725 5.41747 13.7194 4.82021 14.9663C4.13284 14.9544 3.44547 14.9425 2.7581 14.9306C1.41779 14.6217 0.485339 13.5789 0 12.3473ZM18.9817 14.907L16.4716 10.3333L21.5433 7.29682L23.9978 12.1585C24.0721 13.322 22.1721 14.9411 20.9927 14.9285L18.9817 14.907ZM4.13483 4.2053L6.72606 0.365925C9.23932 -0.559482 10.6952 1.43833 11.614 2.69766L9.17233 7.33069L4.13483 4.2053ZM13.9528 6.27195C13.4316 5.05723 12.7353 3.66774 11.8645 2.45962C11.0849 1.37801 10.1429 0.434318 9.42935 0.012702L15.9832 0C17.1602 0.104466 17.7321 0.782847 18.3563 1.71092L19.2987 3.34984L20.7551 2.43086L18.0137 7.2587L12.1023 7.2714L13.9528 6.27195Z" fill="#056939"/>
</svg>
