<svg width="16" height="16" viewBox="0 0 16 16" fill="none" xmlns="http://www.w3.org/2000/svg">
<path d="M8 7.97498C6.9 7.97498 6 7.62498 5.3 6.92498C4.6 6.22498 4.25 5.32498 4.25 4.22498C4.25 3.12498 4.6 2.22498 5.3 1.52498C6 0.824976 6.9 0.474976 8 0.474976C9.1 0.474976 10 0.824976 10.7 1.52498C11.4 2.22498 11.75 3.12498 11.75 4.22498C11.75 5.32498 11.4 6.22498 10.7 6.92498C10 7.62498 9.1 7.97498 8 7.97498ZM0 16V13.65C0 13.0166 0.158333 12.475 0.475 12.025C0.791667 11.575 1.2 11.2333 1.7 11C2.81667 10.5 3.8875 10.125 4.9125 9.87498C5.9375 9.62498 6.96667 9.49998 8 9.49998C9.03333 9.49998 10.0583 9.62914 11.075 9.88748C12.0917 10.1458 13.1583 10.5166 14.275 11C14.7917 11.2333 15.2083 11.575 15.525 12.025C15.8417 12.475 16 13.0166 16 13.65V16H0Z" fill="#056939"/>
</svg>
